<svg width="36" height="36" viewBox="0 0 36 36" fill="none" xmlns="http://www.w3.org/2000/svg">
<rect width="36" height="36" rx="4" fill="#27272B"/>
<path d="M13.52 21.5L13.5 17.79L11.7 20.81H10.82L9.03 17.89V21.5H7.2V14.5H8.83L11.29 18.54L13.69 14.5H15.32L15.34 21.5H13.52ZM19.971 21.64C18.931 21.64 18.121 21.3567 17.541 20.79C16.9677 20.2233 16.681 19.42 16.681 18.38V14.5H18.661V18.32C18.661 19.44 19.1043 20 19.991 20C20.871 20 21.311 19.44 21.311 18.32V14.5H23.261V18.38C23.261 19.42 22.971 20.2233 22.391 20.79C21.8177 21.3567 21.011 21.64 19.971 21.64ZM26.1323 21.64C25.619 21.64 25.1523 21.5533 24.7323 21.38C24.3123 21.2 23.969 20.9433 23.7023 20.61L24.7823 19.33C25.1557 19.8167 25.559 20.06 25.9923 20.06C26.279 20.06 26.4957 19.9733 26.6423 19.8C26.7957 19.6267 26.8723 19.3733 26.8723 19.04V16.03H24.4523V14.5H28.8323V18.92C28.8323 19.8267 28.6023 20.5067 28.1423 20.96C27.689 21.4133 27.019 21.64 26.1323 21.64Z" fill="#FAF3EC"/>
</svg>
