<svg width="621" height="534" viewBox="0 0 621 534" fill="none" xmlns="http://www.w3.org/2000/svg">
<path d="M68.8468 7.28158L563.824 84.1165C573.177 85.5684 580.012 86.6329 585.234 88.1126C590.402 89.5773 593.76 91.3899 596.273 94.1971C598.787 97.0043 600.219 100.541 601.107 105.839C602.003 111.192 602.309 118.102 602.724 127.559L617.944 474.966C618.641 490.87 619.148 502.572 618.253 511.26C617.362 519.905 615.124 525.089 610.734 528.397C606.344 531.705 600.745 532.428 592.189 530.901C583.591 529.367 572.482 525.654 557.386 520.601L172.164 391.649C161.888 388.209 157.339 386.643 153.94 383.497C150.541 380.352 148.628 375.937 144.404 365.957L19.4286 70.666C11.972 53.0477 6.47421 40.0438 3.88917 30.0535C1.30691 20.0739 1.79352 13.6973 5.54547 8.88503C9.29742 4.07273 15.3628 2.04567 25.6708 2.11611C35.9899 2.18662 49.942 4.347 68.8468 7.28158Z" fill="#27272B" stroke="#FAD161" stroke-width="4"/>
</svg>
